<?xml version="1.0" encoding="utf-8"?>
<!-- Generator: Adobe Illustrator 24.0.1, SVG Export Plug-In . SVG Version: 6.00 Build 0)  -->
<svg version="1.1" id="Layer_1" xmlns="http://www.w3.org/2000/svg" xmlns:xlink="http://www.w3.org/1999/xlink" x="0px" y="0px"
	 viewBox="0 0 170.08 56.69" style="enable-background:new 0 0 170.08 56.69;" xml:space="preserve">
<style type="text/css">
	.st0{fill:#E94E1B;}
	.st1{fill:#575756;}
	.st2{fill:#020203;}
</style>
<g>
	<polygon class="st0" points="10,41.6 0.95,41.6 20.71,8.51 29.77,8.51 	"/>
	<polygon class="st0" points="20.92,41.6 11.87,41.6 31.63,8.51 40.69,8.51 	"/>
	<polygon class="st1" points="42.49,8.51 37.96,16.09 41.39,21.82 50.44,21.82 	"/>
</g>
<path class="st2" d="M47.49,41.52c-1.54,0-2.93-0.32-4.17-0.97c-1.22-0.66-2.18-1.57-2.88-2.73c-0.7-1.16-1.05-2.48-1.05-3.95
	s0.35-2.79,1.05-3.95c0.7-1.16,1.66-2.07,2.88-2.71c1.23-0.66,2.62-0.99,4.17-0.99c1.35,0,2.56,0.24,3.64,0.72
	c1.08,0.48,1.98,1.16,2.69,2.06l-2.65,2.4c-0.95-1.15-2.11-1.72-3.47-1.72c-0.8,0-1.51,0.18-2.15,0.53
	c-0.62,0.35-1.1,0.85-1.45,1.49c-0.34,0.63-0.5,1.36-0.5,2.19s0.17,1.56,0.5,2.21c0.35,0.63,0.83,1.12,1.45,1.47
	c0.63,0.35,1.35,0.53,2.15,0.53c1.36,0,2.52-0.57,3.47-1.72l2.65,2.4c-0.72,0.9-1.61,1.58-2.69,2.06
	C50.05,41.28,48.84,41.52,47.49,41.52z M61.66,35.58h-1.89v5.64h-4.14V26.5h4.14v5.72h2l3.51-5.72h4.38l-4.61,7.11l4.65,7.62H65
	L61.66,35.58z M78.12,41.52c-1.54,0-2.93-0.32-4.17-0.97c-1.22-0.66-2.18-1.57-2.88-2.73c-0.7-1.16-1.05-2.48-1.05-3.95
	s0.35-2.79,1.05-3.95c0.7-1.16,1.66-2.07,2.88-2.71c1.23-0.66,2.62-0.99,4.17-0.99c1.35,0,2.56,0.24,3.64,0.72
	c1.08,0.48,1.98,1.16,2.69,2.06l-2.65,2.4c-0.95-1.15-2.11-1.72-3.47-1.72c-0.8,0-1.51,0.18-2.15,0.53
	c-0.62,0.35-1.1,0.85-1.45,1.49c-0.34,0.63-0.5,1.36-0.5,2.19s0.17,1.56,0.5,2.21c0.35,0.63,0.83,1.12,1.45,1.47
	c0.63,0.35,1.35,0.53,2.15,0.53c1.36,0,2.52-0.57,3.47-1.72l2.65,2.4c-0.72,0.9-1.61,1.58-2.69,2.06
	C80.68,41.28,79.47,41.52,78.12,41.52z M85.6,33.69h6.14v3.07H85.6V33.69z M105.1,29.8h-6.67v11.42h-4.1V26.5h10.79L105.1,29.8z
	 M113.71,26.5c1.33,0,2.49,0.22,3.47,0.67c0.98,0.43,1.74,1.07,2.27,1.89c0.53,0.81,0.8,1.77,0.8,2.88c0,1.11-0.27,2.07-0.8,2.88
	c-0.53,0.81-1.29,1.44-2.27,1.89c-0.98,0.43-2.14,0.65-3.47,0.65h-2.57v3.85h-4.17V26.5H113.71z M113.46,34.09
	c0.85,0,1.5-0.18,1.94-0.55c0.43-0.38,0.65-0.91,0.65-1.6c0-0.69-0.22-1.22-0.65-1.6c-0.44-0.38-1.08-0.57-1.94-0.57h-2.31v4.31
	H113.46z M135.8,26.5l-6.1,11.38c-0.64,1.22-1.44,2.15-2.38,2.78c-0.93,0.63-1.94,0.95-3.05,0.95c-0.81,0-1.68-0.18-2.61-0.55
	l0.99-3.07c0.58,0.17,1.07,0.25,1.47,0.25c0.41,0,0.76-0.09,1.07-0.27c0.32-0.18,0.62-0.47,0.88-0.86l-5.72-10.6h4.4l3.43,7.11
	l3.56-7.11H135.8z M150.96,26.5v14.73h-4.12V29.8h-5.6v11.42h-4.1V26.5H150.96z M167.93,26.5v14.73h-4.12V29.8h-5.6v11.42h-4.1V26.5
	H167.93z"/>
</svg>
