<svg width="12" height="16" viewBox="0 0 12 16" fill="none" xmlns="http://www.w3.org/2000/svg">
<path d="M10.6923 5.67477C10.6923 8.35631 5.84615 14.8286 5.84615 14.8286C5.84615 14.8286 1 8.35631 1 5.67477C1 4.38949 1.51058 3.15685 2.41941 2.24802C3.32824 1.33919 4.56087 0.828613 5.84615 0.828613C7.13143 0.828613 8.36407 1.33919 9.2729 2.24802C10.1817 3.15685 10.6923 4.38949 10.6923 5.67477V5.67477Z" stroke="#F9600A" stroke-width="1.5" stroke-linecap="round" stroke-linejoin="round"/>
<path d="M5.8461 7.2901C6.73825 7.2901 7.46148 6.56686 7.46148 5.67471C7.46148 4.78256 6.73825 4.05933 5.8461 4.05933C4.95395 4.05933 4.23071 4.78256 4.23071 5.67471C4.23071 6.56686 4.95395 7.2901 5.8461 7.2901Z" stroke="#F9600A" stroke-width="1.5" stroke-linecap="round" stroke-linejoin="round"/>
</svg>
