<svg width="38" height="39" fill="none" xmlns="http://www.w3.org/2000/svg"><path d="M28.373 38.197L22.8 31.864l2.35-2.449 3.223 3.357 7.276-7.579L38 28.17M19.861 38.197H4.053C1.803 38.197 0 36.32 0 33.975V4.42C0 2.076 1.804.198 4.053.198h28.374c2.25 0 4.053 1.878 4.053 4.222v16.466a11.82 11.82 0 00-4.053-1.52V4.42H4.053v29.555h14.35c.242 1.52.749 2.935 1.458 4.222zm-1.621-8.444H8.107v-4.222H18.24m5.432-4.222H8.107v-4.223h20.266v2.28a11.67 11.67 0 00-4.701 1.943zm4.701-8.445H8.107V8.642h20.266" fill="#F9600A"/></svg>