<svg width="38" height="39" viewBox="0 0 38 39" fill="none" xmlns="http://www.w3.org/2000/svg">
<path d="M28.3733 38.1975L22.8 31.8642L25.1509 29.4153L28.3733 32.772L35.6491 25.1931L38 28.1697M19.8613 38.1975H4.05333C1.80373 38.1975 0 36.3186 0 33.9753V4.41973C0 2.0764 1.80373 0.19751 4.05333 0.19751H32.4267C34.6763 0.19751 36.48 2.0764 36.48 4.41973V20.8864C35.2437 20.1475 33.8859 19.6197 32.4267 19.3664V4.41973H4.05333V33.9753H18.4021C18.6453 35.4953 19.152 36.9097 19.8613 38.1975ZM18.24 29.7531H8.10667V25.5308H18.24M23.6715 21.3086H8.10667V17.0864H28.3733V19.3664C26.6507 19.662 25.0699 20.3375 23.6715 21.3086ZM28.3733 12.8642H8.10667V8.64195H28.3733" fill="#F9600A"/>
</svg>
