<svg width="42" height="44" fill="none" xmlns="http://www.w3.org/2000/svg"><path d="M15.806 12.462a2.849 2.849 0 012.853 2.852 2.849 2.849 0 01-2.853 2.853 2.849 2.849 0 01-2.852-2.853 2.849 2.849 0 012.852-2.852zm9.509 13.311a2.849 2.849 0 012.852 2.853 2.849 2.849 0 01-2.852 2.852 2.849 2.849 0 01-2.853-2.852 2.849 2.849 0 012.853-2.853zm-11.581 5.705l-2.682-2.68 16.335-16.336 2.682 2.681-16.335 16.335zM33.207 4.57l1.16 7.34 6.675 3.404-3.366 6.656 3.384 6.656-6.731 3.404-1.16 7.34-7.398-1.16-5.268 5.268-5.286-5.344-7.34 1.217-1.18-7.397-6.636-3.385 3.385-6.656L.08 15.314l6.674-3.442 1.16-7.264 7.36 1.198L20.56.472l5.248 5.258 7.398-1.16zm2.757 12.399l-4.944-2.606-.951-5.495-5.515.798-3.993-3.86-3.994 3.86-5.515-.798-.95 5.495-4.945 2.606 2.472 5.001-2.472 5.002 4.944 2.605.951 5.496 5.515-.8 3.994 3.861 3.993-3.86 5.515.799.95-5.496 4.945-2.606-2.472-5 2.472-5.002z" fill="#F9600A"/></svg>