<svg xmlns="http://www.w3.org/2000/svg" viewBox="0 0 170.08 56.69"><path d="M10 41.6H.95L20.71 8.51h9.06zm10.92 0h-9.05L31.63 8.51h9.06z" fill="#e94e1b"/><path fill="#575756" d="M42.49 8.51l-4.53 7.58 3.43 5.73h9.05z"/><path d="M47.49 41.52c-1.54 0-2.93-.32-4.17-.97a7.419 7.419 0 01-2.88-2.73c-.7-1.16-1.05-2.48-1.05-3.95s.35-2.79 1.05-3.95a7.23 7.23 0 012.88-2.71c1.23-.66 2.62-.99 4.17-.99 1.35 0 2.56.24 3.64.72s1.98 1.16 2.69 2.06l-2.65 2.4c-.95-1.15-2.11-1.72-3.47-1.72-.8 0-1.51.18-2.15.53-.62.35-1.1.85-1.45 1.49-.34.63-.5 1.36-.5 2.19s.17 1.56.5 2.21c.35.63.83 1.12 1.45 1.47.63.35 1.35.53 2.15.53 1.36 0 2.52-.57 3.47-1.72l2.65 2.4c-.72.9-1.61 1.58-2.69 2.06-1.08.44-2.29.68-3.64.68zm14.17-5.94h-1.89v5.64h-4.14V26.5h4.14v5.72h2l3.51-5.72h4.38l-4.61 7.11 4.65 7.62H65l-3.34-5.65zm16.46 5.94c-1.54 0-2.93-.32-4.17-.97a7.419 7.419 0 01-2.88-2.73c-.7-1.16-1.05-2.48-1.05-3.95s.35-2.79 1.05-3.95a7.23 7.23 0 012.88-2.71c1.23-.66 2.62-.99 4.17-.99 1.35 0 2.56.24 3.64.72s1.98 1.16 2.69 2.06l-2.65 2.4c-.95-1.15-2.11-1.72-3.47-1.72-.8 0-1.51.18-2.15.53-.62.35-1.1.85-1.45 1.49-.34.63-.5 1.36-.5 2.19s.17 1.56.5 2.21c.35.63.83 1.12 1.45 1.47.63.35 1.35.53 2.15.53 1.36 0 2.52-.57 3.47-1.72l2.65 2.4c-.72.9-1.61 1.58-2.69 2.06-1.08.44-2.29.68-3.64.68zm7.48-7.83h6.14v3.07H85.6v-3.07zm19.5-3.89h-6.67v11.42h-4.1V26.5h10.79l-.02 3.3zm8.61-3.3c1.33 0 2.49.22 3.47.67.98.43 1.74 1.07 2.27 1.89.53.81.8 1.77.8 2.88 0 1.11-.27 2.07-.8 2.88s-1.29 1.44-2.27 1.89c-.98.43-2.14.65-3.47.65h-2.57v3.85h-4.17V26.5h6.74zm-.25 7.59c.85 0 1.5-.18 1.94-.55.43-.38.65-.91.65-1.6 0-.69-.22-1.22-.65-1.6-.44-.38-1.08-.57-1.94-.57h-2.31v4.31h2.31zm22.34-7.59l-6.1 11.38c-.64 1.22-1.44 2.15-2.38 2.78-.93.63-1.94.95-3.05.95-.81 0-1.68-.18-2.61-.55l.99-3.07c.58.17 1.07.25 1.47.25.41 0 .76-.09 1.07-.27.32-.18.62-.47.88-.86l-5.72-10.6h4.4l3.43 7.11 3.56-7.11h4.06zm15.16 0v14.73h-4.12V29.8h-5.6v11.42h-4.1V26.5h13.82zm16.97 0v14.73h-4.12V29.8h-5.6v11.42h-4.1V26.5h13.82z" fill="#fff"/></svg>