<svg width="183" height="43" fill="none" xmlns="http://www.w3.org/2000/svg"><path d="M54.507 36.708c-1.613 0-3.065-.337-4.356-1.012a7.748 7.748 0 01-3.014-2.86c-.733-1.217-1.1-2.596-1.1-4.136s.367-2.919 1.1-4.136a7.591 7.591 0 013.014-2.838c1.29-.69 2.743-1.034 4.356-1.034 1.408 0 2.677.25 3.806.748a7.323 7.323 0 012.816 2.156l-2.772 2.508c-.997-1.203-2.207-1.804-3.63-1.804-.836 0-1.584.183-2.244.55a3.892 3.892 0 00-1.518 1.562c-.352.66-.528 1.423-.528 2.288 0 .865.176 1.635.528 2.31a3.93 3.93 0 001.518 1.54c.66.367 1.408.55 2.244.55 1.423 0 2.633-.601 3.63-1.804l2.772 2.508a7.323 7.323 0 01-2.816 2.156c-1.13.499-2.398.748-3.806.748zm14.816-6.204h-1.98V36.4h-4.334V21h4.334v5.984h2.09L73.107 21h4.576l-4.818 7.436 4.862 7.964H72.82l-3.498-5.896zm17.217 6.204c-1.613 0-3.065-.337-4.356-1.012a7.748 7.748 0 01-3.014-2.86c-.733-1.217-1.1-2.596-1.1-4.136s.367-2.919 1.1-4.136a7.591 7.591 0 013.014-2.838c1.29-.69 2.743-1.034 4.356-1.034 1.408 0 2.677.25 3.806.748a7.323 7.323 0 012.816 2.156l-2.772 2.508c-.997-1.203-2.207-1.804-3.63-1.804-.836 0-1.584.183-2.244.55a3.893 3.893 0 00-1.518 1.562c-.352.66-.528 1.423-.528 2.288 0 .865.176 1.635.528 2.31a3.93 3.93 0 001.518 1.54c.66.367 1.408.55 2.244.55 1.423 0 2.633-.601 3.63-1.804l2.772 2.508a7.323 7.323 0 01-2.816 2.156c-1.13.499-2.398.748-3.806.748zm7.824-8.184h6.424v3.212h-6.424v-3.212zm20.387-4.07h-6.974V36.4h-4.29V21h11.286l-.022 3.454zM123.762 21c1.393 0 2.603.235 3.63.704 1.026.455 1.818 1.115 2.376 1.98.557.85.836 1.855.836 3.014 0 1.159-.279 2.163-.836 3.014-.558.85-1.35 1.51-2.376 1.98-1.027.455-2.237.682-3.63.682h-2.684V36.4h-4.356V21h7.04zm-.264 7.942c.894 0 1.569-.19 2.024-.572.454-.396.682-.953.682-1.672s-.228-1.276-.682-1.672c-.455-.396-1.13-.594-2.024-.594h-2.42v4.51h2.42zM146.863 21l-6.38 11.902c-.674 1.276-1.503 2.244-2.486 2.904-.968.66-2.031.99-3.19.99-.85 0-1.76-.19-2.728-.572l1.034-3.212c.602.176 1.115.264 1.54.264.426 0 .8-.095 1.122-.286.338-.19.646-.491.924-.902L130.715 21h4.598l3.586 7.436L142.617 21h4.246zm15.852 0v15.4h-4.312V24.454h-5.852V36.4h-4.29V21h14.454zm17.746 0v15.4h-4.312V24.454h-5.852V36.4h-4.29V21h14.454z" fill="#000"/><path d="M7.32 38.9V26.07L29.79 9.66l6.19 4.53 6.21-4.53L29.79.6 0 22.35V38.9h7.32z" fill="#F9600A"/><path d="M31.58 38.9V26.07L54.05 9.66h12.4L54.05.6 24.26 22.35V38.9h7.32z" fill="#F9600A"/></svg>