<svg width="183" height="43" fill="none" xmlns="http://www.w3.org/2000/svg"><path d="M54.83 36.936c-1.614 0-3.066-.338-4.356-1.012a7.748 7.748 0 01-3.014-2.86c-.734-1.218-1.1-2.596-1.1-4.136s.366-2.919 1.1-4.136a7.591 7.591 0 013.014-2.838c1.29-.69 2.742-1.034 4.356-1.034 1.407 0 2.676.249 3.806.748a7.323 7.323 0 012.816 2.156l-2.773 2.508c-.997-1.203-2.207-1.804-3.63-1.804-.835 0-1.584.183-2.243.55a3.893 3.893 0 00-1.518 1.562c-.352.66-.528 1.422-.528 2.288 0 .865.175 1.635.528 2.31a3.93 3.93 0 001.518 1.54c.66.366 1.408.55 2.244.55 1.422 0 2.632-.602 3.63-1.804l2.772 2.508a7.323 7.323 0 01-2.816 2.156c-1.13.498-2.399.748-3.806.748zm14.815-6.204h-1.98v5.896h-4.334v-15.4h4.334v5.984h2.09l3.674-5.984h4.576l-4.818 7.436 4.862 7.964h-4.906l-3.498-5.896zm17.218 6.204c-1.614 0-3.066-.338-4.356-1.012a7.748 7.748 0 01-3.014-2.86c-.734-1.218-1.1-2.596-1.1-4.136s.366-2.919 1.1-4.136a7.591 7.591 0 013.014-2.838c1.29-.69 2.742-1.034 4.356-1.034 1.408 0 2.676.249 3.806.748a7.323 7.323 0 012.816 2.156l-2.772 2.508c-.998-1.203-2.208-1.804-3.63-1.804-.836 0-1.584.183-2.244.55a3.893 3.893 0 00-1.518 1.562c-.352.66-.528 1.422-.528 2.288 0 .865.176 1.635.528 2.31a3.93 3.93 0 001.518 1.54c.66.366 1.408.55 2.244.55 1.422 0 2.632-.602 3.63-1.804l2.772 2.508a7.323 7.323 0 01-2.816 2.156c-1.13.498-2.398.748-3.806.748zm7.824-8.184h6.424v3.212h-6.424v-3.212zm20.387-4.07H108.1v11.946h-4.29v-15.4h11.286l-.022 3.454zm9.01-3.454c1.394 0 2.604.234 3.63.704 1.027.454 1.819 1.114 2.376 1.98.558.85.836 1.855.836 3.014 0 1.158-.278 2.163-.836 3.014-.557.85-1.349 1.51-2.376 1.98-1.026.454-2.236.682-3.63.682H121.4v4.026h-4.356v-15.4h7.04zm-.264 7.942c.895 0 1.57-.191 2.024-.572.455-.396.682-.954.682-1.672 0-.719-.227-1.276-.682-1.672-.454-.396-1.129-.594-2.024-.594h-2.42v4.51h2.42zm23.366-7.942l-6.38 11.902c-.675 1.276-1.503 2.244-2.486 2.904-.968.66-2.031.99-3.19.99-.851 0-1.76-.191-2.728-.572l1.034-3.212c.601.176 1.115.264 1.54.264.425 0 .799-.096 1.122-.286.337-.191.645-.492.924-.902l-5.984-11.088h4.598l3.586 7.436 3.718-7.436h4.246zm15.851 0v15.4h-4.312V24.682h-5.852v11.946h-4.29v-15.4h14.454zm17.746 0v15.4h-4.312V24.682h-5.852v11.946h-4.29v-15.4h14.454z" fill="#fff"/><path d="M7.643 39.128v-12.83l22.47-16.41 6.19 4.53 6.21-4.53-12.4-9.06-29.79 21.75v16.55h7.32z" fill="#F9600A"/><path d="M31.902 39.128v-12.83l22.47-16.41h12.4l-12.4-9.06-29.79 21.75v16.55h7.32z" fill="#F9600A"/></svg>